<?xml version="1.0" encoding="iso-8859-1"?>
<!-- Uploaded to: SVG Repo, www.svgrepo.com, Generator: SVG Repo Mixer Tools -->
<!DOCTYPE svg PUBLIC "-//W3C//DTD SVG 1.1//EN" "http://www.w3.org/Graphics/SVG/1.1/DTD/svg11.dtd">
<svg fill="#000000" height="800px" width="800px" version="1.1" id="Capa_1" xmlns="http://www.w3.org/2000/svg" xmlns:xlink="http://www.w3.org/1999/xlink" 
	 viewBox="0 0 455.002 455.002" xml:space="preserve">
<path d="M353.283,441.809l-111.11-95.309V100.323h15v2.5c0,4.142,3.358,7.5,7.5,7.5s7.5-3.358,7.5-7.5v-20
	c0-4.142-3.358-7.5-7.5-7.5s-7.5,3.358-7.5,7.5v2.5h-17.904l-8.936-17.538l28.291-15.792c3.521-1.965,4.857-6.362,3.027-9.954
	l-6.262-12.289l2.227-1.135c3.69-1.88,5.158-6.396,3.278-10.087s-6.397-5.159-10.087-3.278l-2.228,1.135l-6.262-12.289
	c-1.831-3.592-6.173-5.096-9.832-3.402l-44.587,20.631C173.99,9.758,156.571,3.441,138.308,3.441
	c-12.283,0-24.097,2.846-35.111,8.458c-1.772,0.903-3.113,2.473-3.728,4.365c-0.615,1.892-0.453,3.951,0.45,5.723l63.559,124.741
	c1.325,2.6,3.958,4.097,6.688,4.097c1.146,0,2.309-0.263,3.399-0.819c27.664-14.095,44.143-43.396,42.158-74.065l1.503-0.839
	l9.947,19.522v251.877l-111.11,95.309c-3.144,2.697-3.506,7.432-0.809,10.575c2.696,3.144,7.43,3.507,10.576,0.81l61.222-52.516
	l40.121,21.33v25.494c0,4.142,3.358,7.5,7.5,7.5s7.5-3.358,7.5-7.5v-25.493l40.122-21.33l61.221,52.515
	c1.415,1.214,3.151,1.808,4.88,1.808c2.112,0,4.213-0.888,5.696-2.617C356.789,449.241,356.427,444.506,353.283,441.809z
	 M200.347,72.766c3.13,23.698-7.61,46.958-27.114,60.067L116.889,22.25c6.859-2.53,14.037-3.809,21.42-3.809
	c16.133,0,31.446,6.105,43.118,17.191c2.229,2.117,5.524,2.66,8.314,1.369l42.49-19.661l12.777,25.075l-40.88,22.819
	C201.443,66.734,199.945,69.719,200.347,72.766z M199.279,390.191l27.895-23.928v38.758L199.279,390.191z M242.173,405.021v-38.758
	l27.895,23.928L242.173,405.021z"/>
</svg>